<?xml version="1.0" encoding="UTF-8"?>
<!DOCTYPE svg PUBLIC "-//W3C//DTD SVG 1.1//EN" "http://www.w3.org/Graphics/SVG/1.1/DTD/svg11.dtd">
<!-- Creator: CorelDRAW X8 -->
<svg xmlns="http://www.w3.org/2000/svg" xml:space="preserve" width="210mm" height="297mm" version="1.1" style="shape-rendering:geometricPrecision; text-rendering:geometricPrecision; image-rendering:optimizeQuality; fill-rule:evenodd; clip-rule:evenodd"
viewBox="0 0 21000 29700"
 xmlns:xlink="http://www.w3.org/1999/xlink">
 <defs>
  <style type="text/css">
   <![CDATA[
    .str0 {stroke:#373435;stroke-width:7.62}
    .fil1 {fill:#373435}
    .fil0 {fill:#373435;fill-rule:nonzero}
   ]]>
  </style>
 </defs>
 <g id="Capa_x0020_1">
  <metadata id="CorelCorpID_0Corel-Layer"/>
  <g id="_2210436185040">
   <path class="fil0" d="M8323 10261l143 0 118 354 117 -354 142 0 0 462 -95 0 8 -360 -118 360 -103 0 -123 -364 10 364 -99 0 0 -462zm733 394l112 0 0 -70 -106 0c-21,0 -35,2 -43,8 -8,6 -12,16 -12,30 0,12 3,20 10,25 6,4 19,7 39,7zm-119 -271l183 0c46,0 81,11 105,32 23,21 35,53 35,94l0 213 -241 0c-33,0 -59,-9 -78,-26 -18,-17 -27,-41 -27,-72 0,-38 11,-66 32,-83 20,-16 55,-25 103,-25l118 0 0 -8c0,-20 -6,-35 -17,-43 -12,-8 -33,-12 -64,-12l-149 0 0 -70zm401 0l151 0c35,0 59,6 73,19 15,13 22,35 22,66l0 57 -86 0 0 -44c0,-13 -2,-22 -7,-26 -5,-5 -15,-7 -32,-7l-31 0 0 274 -90 0 0 -339zm776 266l0 -193 -54 0c-36,0 -62,8 -77,23 -15,15 -23,40 -23,76 0,34 7,59 21,73 14,14 38,21 72,21l61 0zm90 73l-172 0c-52,0 -93,-15 -122,-46 -29,-31 -44,-73 -44,-128 0,-22 3,-43 10,-62 6,-18 15,-35 27,-51 15,-19 33,-32 53,-40 21,-8 48,-12 82,-12l76 0 0 -123 90 0 0 462zm229 0c-57,0 -99,-14 -128,-43 -29,-29 -43,-71 -43,-126 0,-56 14,-98 43,-127 29,-29 72,-43 128,-43l130 0 0 71 -118 0c-33,0 -55,4 -66,13 -11,10 -17,26 -18,50l202 0 0 71 -202 0c1,24 7,41 17,50 10,9 32,13 66,13l119 0 0 71 -130 0zm279 0l-93 0 0 -462 93 0 0 462zm335 -462l211 0c36,0 64,2 85,6 21,3 38,9 51,17 21,13 36,31 47,53 11,21 16,46 16,75 0,27 -4,51 -13,71 -9,20 -22,36 -40,49 -15,11 -32,18 -52,23 -20,4 -50,6 -90,6l-118 0 0 162 -97 0 0 -462zm210 82l-113 0 0 137 119 0c29,0 51,-6 65,-17 14,-11 21,-28 21,-51 0,-25 -7,-43 -21,-53 -14,-10 -37,-16 -71,-16zm351 380l-94 0 0 -462 94 0 0 462zm202 -68l112 0 0 -70 -105 0c-21,0 -36,2 -44,8 -8,6 -12,16 -12,30 0,12 4,20 10,25 6,4 20,7 39,7zm-119 -271l184 0c46,0 81,11 104,32 24,21 35,53 35,94l0 213 -240 0c-34,0 -60,-9 -78,-26 -18,-17 -27,-41 -27,-72 0,-38 10,-66 31,-83 21,-16 56,-25 104,-25l118 0 0 -8c0,-20 -6,-35 -18,-43 -12,-8 -33,-12 -63,-12l-150 0 0 -70zm368 0l63 0 0 -123 90 0 0 123 94 0 0 68 -94 0 0 136c0,26 4,43 13,53 8,10 23,14 44,14l37 0 0 68 -81 0c-33,0 -59,-9 -76,-28 -18,-18 -27,-44 -27,-78l0 -165 -63 0 0 -68zm426 271l112 0 0 -70 -105 0c-21,0 -36,2 -44,8 -8,6 -12,16 -12,30 0,12 3,20 10,25 6,4 19,7 39,7zm-119 -271l183 0c47,0 81,11 105,32 23,21 35,53 35,94l0 213 -241 0c-33,0 -59,-9 -77,-26 -18,-17 -27,-41 -27,-72 0,-38 10,-66 31,-83 21,-16 55,-25 104,-25l117 0 0 -8c0,-20 -5,-35 -17,-43 -12,-8 -33,-12 -64,-12l-149 0 0 -70z"/>
   <path class="fil0" d="M8443 7409l0 257c0,40 7,68 22,83 14,16 39,24 75,24 35,0 60,-8 74,-23 15,-16 22,-44 22,-84l0 -257 90 0 0 259c0,30 -2,54 -6,73 -4,18 -10,32 -19,42 -17,21 -39,36 -65,45 -26,10 -58,14 -96,14 -39,0 -71,-4 -97,-14 -26,-9 -48,-24 -65,-45 -9,-10 -15,-24 -19,-41 -4,-18 -6,-42 -6,-74l0 -259 90 0zm370 0l115 0 175 308 -4 -308 92 0 0 429 -105 0 -184 -325 4 325 -93 0 0 -429zm560 429l-94 0 0 -429 94 0 0 429zm212 0l-186 -429 102 0 129 319 132 -319 96 0 -179 429 -94 0zm472 -354c-32,0 -57,8 -73,24 -17,16 -26,41 -28,75l249 0 0 75 -250 0c1,37 9,64 24,80 16,17 42,25 78,25l148 0 0 75 -152 0c-34,0 -60,-3 -79,-9 -19,-6 -38,-15 -54,-29 -22,-18 -39,-40 -50,-68 -11,-28 -16,-62 -16,-101 0,-76 16,-132 49,-168 33,-36 84,-54 153,-54l149 0 0 75 -148 0zm428 1l-111 0 0 108 111 0c30,0 51,-4 62,-12 12,-8 18,-22 18,-42 0,-20 -6,-34 -17,-42 -12,-8 -32,-12 -63,-12zm-201 -76l222 0c52,0 90,10 114,31 24,21 36,54 36,98 0,33 -7,59 -22,80 -15,21 -36,34 -64,40l107 180 -102 0 -94 -169 -107 0 0 169 -90 0 0 -429zm811 76l-223 0c-24,0 -41,5 -53,14 -11,9 -16,23 -16,42 0,16 4,28 14,35 9,8 24,12 42,12l120 0c49,0 84,9 105,28 21,19 32,50 32,93 0,44 -13,77 -37,98 -24,20 -62,31 -113,31l-240 0 0 -77 225 0c26,0 44,-4 55,-11 10,-8 15,-20 15,-37 0,-18 -4,-31 -14,-38 -10,-8 -26,-12 -50,-12l-106 0c-49,0 -85,-10 -108,-29 -23,-20 -35,-51 -35,-94 0,-45 12,-79 36,-100 24,-21 63,-31 115,-31l236 0 0 76zm183 353l-94 0 0 -429 94 0 0 429zm284 -354l-105 0 0 279 105 0c40,0 67,-10 82,-30 15,-20 23,-57 23,-110 0,-53 -8,-89 -23,-109 -15,-20 -42,-30 -82,-30zm-195 -75l196 0c69,0 120,18 153,54 33,36 49,92 49,168 0,39 -5,73 -16,101 -11,28 -27,50 -49,68 -17,14 -35,23 -55,29 -19,6 -45,9 -79,9l-199 0 0 -429zm628 85l-63 165 128 0 -65 -165zm-45 -85l96 0 183 429 -101 0 -39 -102 -186 0 -38 102 -96 0 181 -429zm503 75l-104 0 0 279 104 0c40,0 68,-10 83,-30 15,-20 23,-57 23,-110 0,-53 -8,-89 -23,-109 -15,-20 -43,-30 -83,-30zm-194 -75l196 0c69,0 120,18 153,54 33,36 49,92 49,168 0,39 -5,73 -16,101 -11,28 -28,50 -50,68 -17,14 -35,23 -54,29 -19,6 -46,9 -79,9l-199 0 0 -429zm-3811 791l-138 0 0 -75 371 0 0 75 -139 0 0 353 -94 0 0 -353zm456 -1c-32,0 -57,9 -74,25 -16,16 -25,41 -27,75l249 0 0 75 -250 0c0,37 8,64 24,80 16,17 42,25 78,25l148 0 0 74 -152 0c-34,0 -60,-2 -79,-8 -20,-6 -38,-16 -55,-29 -22,-18 -38,-40 -49,-69 -11,-28 -16,-61 -16,-100 0,-76 16,-132 49,-168 33,-36 84,-54 153,-54l149 0 0 74 -148 0zm407 -1c-37,0 -64,12 -81,36 -16,23 -24,62 -24,117 0,47 8,80 23,99 16,19 43,29 82,29l148 0 0 74 -152 0c-34,0 -60,-2 -80,-8 -19,-6 -37,-16 -54,-29 -22,-18 -38,-40 -49,-69 -11,-28 -17,-61 -17,-100 0,-76 17,-132 49,-168 33,-36 84,-54 153,-54l150 0 0 73 -148 0zm217 -73l114 0 176 308 -4 -308 92 0 0 428 -105 0 -184 -324 4 324 -93 0 0 -428zm440 210c0,-74 18,-129 53,-165 35,-36 89,-54 161,-54 73,0 127,19 161,55 35,36 53,92 53,168 0,76 -18,132 -53,169 -34,36 -88,55 -161,55 -73,0 -127,-19 -162,-56 -34,-36 -52,-94 -52,-172zm214 -145c-38,0 -67,12 -87,36 -19,24 -28,61 -28,109 0,53 9,92 28,117 18,24 47,36 87,36 39,0 68,-12 87,-36 19,-25 29,-62 29,-113 0,-51 -10,-88 -29,-113 -19,-24 -48,-36 -87,-36zm449 363c-40,0 -70,-3 -90,-10 -19,-6 -36,-18 -52,-34 -14,-15 -24,-32 -30,-51 -6,-18 -9,-44 -9,-78l0 -255 91 0 0 252c0,25 1,43 3,53 2,10 6,18 11,24 9,10 19,18 32,22 12,4 30,6 51,6l107 0 0 71 -114 0zm137 -218c0,-74 18,-129 53,-165 35,-36 89,-54 161,-54 73,0 126,19 161,55 35,36 53,92 53,168 0,76 -18,132 -53,169 -35,36 -88,55 -161,55 -73,0 -127,-19 -162,-56 -35,-36 -52,-94 -52,-172zm214 -145c-39,0 -68,12 -87,36 -19,24 -28,61 -28,109 0,53 9,92 28,117 18,24 47,36 87,36 39,0 68,-12 87,-36 19,-25 29,-62 29,-113 0,-51 -10,-88 -29,-113 -19,-24 -48,-36 -87,-36zm10 -189l86 0 -102 83 -42 0 58 -83zm424 374l0 -76 213 0 0 254 -194 0c-35,0 -63,-2 -82,-8 -19,-6 -37,-16 -54,-29 -22,-18 -38,-40 -49,-69 -11,-28 -17,-61 -17,-100 0,-76 17,-132 50,-168 33,-36 84,-54 152,-54l194 0 0 74 -194 0c-35,0 -61,11 -77,34 -16,23 -24,59 -24,110 0,47 8,80 24,101 16,21 42,32 77,32l102 0 0 -101 -121 0zm385 178l-94 0 0 -428 94 0 0 428zm270 -355c-38,0 -65,12 -81,36 -16,23 -25,62 -25,117 0,47 8,80 24,99 16,19 43,29 82,29l148 0 0 74 -153 0c-33,0 -60,-2 -79,-8 -19,-6 -37,-16 -54,-29 -22,-18 -39,-40 -50,-69 -11,-28 -16,-61 -16,-100 0,-76 16,-132 49,-168 33,-36 84,-54 153,-54l150 0 0 73 -148 0zm384 12l-63 165 128 0 -65 -165zm-44 -85l95 0 183 428 -100 0 -39 -102 -187 0 -38 102 -96 0 182 -428zm-4056 716l114 0 175 308 -4 -308 92 0 0 428 -105 0 -184 -324 4 324 -92 0 0 -428zm803 85l-62 165 127 0 -65 -165zm-44 -85l96 0 183 428 -101 0 -39 -102 -186 0 -39 102 -95 0 181 -428zm657 73c-37,0 -64,12 -80,35 -17,24 -25,63 -25,117 0,47 8,81 24,100 15,19 43,29 81,29l148 0 0 74 -152 0c-34,0 -60,-3 -79,-8 -20,-6 -38,-16 -55,-29 -22,-18 -38,-41 -49,-69 -11,-28 -16,-61 -16,-100 0,-76 16,-132 49,-168 33,-36 84,-54 153,-54l149 0 0 73 -148 0zm481 355l-94 0 0 -428 94 0 0 428zm234 -218c0,-74 18,-129 53,-165 35,-36 89,-54 161,-54 73,0 126,18 161,55 35,36 53,92 53,168 0,76 -18,132 -53,169 -35,36 -88,54 -161,54 -74,0 -127,-18 -162,-55 -35,-36 -52,-94 -52,-172zm214 -145c-39,0 -68,12 -87,36 -19,24 -28,60 -28,109 0,53 9,92 27,116 19,25 48,37 88,37 39,0 68,-12 87,-36 19,-25 29,-62 29,-113 0,-51 -10,-89 -29,-113 -19,-24 -48,-36 -87,-36zm447 -65l114 0 176 308 -5 -308 93 0 0 428 -105 0 -184 -324 4 324 -93 0 0 -428zm804 85l-63 165 128 0 -65 -165zm-44 -85l95 0 183 428 -100 0 -40 -102 -186 0 -38 102 -96 0 182 -428zm650 428c-40,0 -70,-3 -89,-10 -19,-6 -37,-18 -52,-35 -14,-14 -25,-31 -30,-50 -6,-18 -9,-45 -9,-78l0 -255 90 0 0 252c0,25 1,42 3,53 3,10 7,18 12,24 8,10 19,18 31,22 13,4 30,6 52,6l106 0 0 71 -114 0z"/>
   <polygon class="fil0" points="8311,9501 12675,9501 12675,9566 8311,9566 "/>
   <path class="fil1" d="M12675 1972c0,1055 -749,1935 -1744,2138l1744 0 0 873 -1744 0c995,203 1744,1083 1744,2138l-873 0c0,-570 -364,-1055 -873,-1234l0 1234 -873 0 0 -1234c-508,179 -873,664 -873,1234l-872 0c0,-1055 749,-1935 1744,-2138l-1744 0 0 -873 1744 0c-995,-203 -1744,-1083 -1744,-2138l872 0c0,570 365,1055 873,1235l0 -1235 873 0 0 1235c509,-180 873,-665 873,-1235l873 0z"/>
   <path class="fil0" d="M8323 9965c0,-37 2,-64 7,-81 4,-17 12,-31 23,-42 11,-11 25,-20 44,-25 18,-5 41,-8 68,-8l93 0 0 50 -98 0c-26,0 -45,6 -57,17 -12,11 -19,29 -19,54l174 0 0 50 -174 0 0 118 -61 0 0 -133zm372 -98l-42 111 86 0 -44 -111zm-30 -58l64 0 124 289 -68 0 -26 -69 -126 0 -26 69 -64 0 122 -289zm327 50c-25,0 -43,8 -54,24 -11,16 -17,42 -17,78 0,32 6,55 16,67 11,13 29,20 55,20l100 0 0 50 -103 0c-22,0 -40,-2 -53,-5 -13,-4 -25,-11 -37,-20 -14,-12 -26,-27 -33,-46 -7,-19 -11,-42 -11,-68 0,-51 11,-89 33,-113 22,-25 57,-37 103,-37l101 0 0 50 -100 0zm205 -50l0 173c0,27 4,46 14,57 10,10 27,16 51,16 24,0 40,-5 50,-16 10,-11 15,-30 15,-57l0 -173 60 0 0 175c0,20 -1,37 -4,49 -2,12 -7,22 -12,29 -12,13 -26,23 -44,30 -18,6 -39,10 -65,10 -26,0 -48,-4 -66,-10 -17,-7 -32,-17 -43,-30 -6,-7 -10,-17 -13,-28 -3,-12 -4,-29 -4,-50l0 -175 61 0zm364 289c-27,0 -47,-2 -60,-6 -13,-5 -25,-13 -35,-24 -10,-10 -17,-21 -21,-34 -4,-12 -6,-30 -6,-53l0 -172 61 0 0 170c0,17 1,29 3,36 1,7 4,12 7,17 6,6 13,11 22,14 8,3 20,4 34,4l72 0 0 48 -77 0zm117 -238l-93 0 0 -51 250 0 0 51 -94 0 0 238 -63 0 0 -238zm262 7l-42 111 86 0 -44 -111zm-30 -58l65 0 123 289 -68 0 -26 -69 -126 0 -26 69 -64 0 122 -289zm340 50l-71 0 0 189 71 0c26,0 45,-7 55,-20 10,-14 16,-39 16,-74 0,-36 -6,-61 -16,-74 -10,-14 -29,-21 -55,-21zm-132 -50l133 0c46,0 81,12 103,37 22,24 33,62 33,113 0,26 -4,49 -11,68 -7,19 -19,34 -33,46 -12,9 -24,16 -37,20 -13,3 -31,5 -53,5l-135 0 0 -289zm602 52l-74 0 0 73 74 0c21,0 35,-3 42,-9 8,-5 12,-15 12,-28 0,-13 -4,-23 -11,-28 -8,-6 -22,-8 -43,-8zm-135 -52l150 0c35,0 60,7 76,21 17,14 25,36 25,66 0,22 -5,40 -15,54 -10,15 -25,24 -44,28l73 120 -69 0 -64 -113 -71 0 0 113 -61 0 0 -289zm421 50c-22,0 -38,6 -50,17 -11,11 -17,28 -18,51l168 0 0 50 -169 0c1,25 6,43 16,54 11,11 29,17 53,17l100 0 0 50 -103 0c-22,0 -40,-2 -53,-5 -13,-4 -25,-11 -37,-20 -14,-12 -26,-27 -33,-46 -7,-19 -11,-42 -11,-68 0,-51 11,-89 33,-113 22,-25 57,-37 103,-37l101 0 0 50 -100 0zm259 119l0 -51 143 0 0 171 -130 0c-25,0 -43,-2 -56,-6 -13,-4 -25,-10 -36,-19 -15,-12 -26,-27 -34,-46 -7,-19 -11,-42 -11,-68 0,-51 11,-89 34,-113 22,-25 56,-37 103,-37l130 0 0 50 -130 0c-24,0 -42,8 -53,23 -11,16 -16,40 -16,74 0,32 5,55 16,69 11,14 29,21 53,21l68 0 0 -68 -81 0zm257 120l-63 0 0 -289 63 0 0 289zm42 -147c0,-50 12,-87 36,-111 23,-24 60,-37 108,-37 49,0 86,13 109,37 24,25 35,63 35,114 0,51 -11,89 -35,113 -23,25 -60,37 -109,37 -49,0 -86,-12 -109,-37 -23,-25 -35,-63 -35,-116zm144 -98c-26,0 -45,8 -58,24 -13,17 -20,41 -20,74 0,36 7,62 19,79 13,16 32,24 59,24 27,0 46,-8 59,-24 13,-17 19,-42 19,-76 0,-35 -6,-60 -19,-76 -13,-17 -32,-25 -59,-25zm186 -44l77 0 118 208 -2 -208 62 0 0 289 -71 0 -124 -218 2 218 -62 0 0 -289zm426 58l-42 111 86 0 -44 -111zm-30 -58l65 0 123 289 -68 0 -26 -69 -126 0 -26 69 -64 0 122 -289zm323 289c-27,0 -47,-2 -60,-6 -13,-5 -25,-13 -35,-24 -10,-10 -17,-21 -21,-34 -4,-12 -6,-30 -6,-53l0 -172 61 0 0 170c0,17 1,29 3,36 1,7 4,12 7,17 6,6 13,11 22,14 8,3 20,4 34,4l72 0 0 48 -77 0z"/>
  </g>
  <g id="_2210436182320">
   <path class="fil0 str0" d="M3772 15053c0,498 279,747 839,747 559,0 838,-249 838,-747l0 -1153 -275 0 0 1186c0,161 -50,281 -149,359 -100,77 -238,116 -414,116 -177,0 -315,-39 -415,-116 -99,-78 -149,-198 -149,-359l0 -1186 -275 0 0 1153zm2575 701l276 0 0 -1615 701 0 0 -239 -1678 0 0 239 701 0 0 1615zm2662 0l319 0 0 -1854 -275 0 0 1474 -5 0 -1192 -1474 -319 0 0 1854 275 0 0 -1475 5 0 1192 1475z"/>
   <g>
    <polygon class="fil0" points="11993,13900 11993,15756 11931,15756 11931,13900 "/>
    <path class="fil0 str0" d="M12336 14367l0 -460 310 0 0 54 -249 0 0 143 216 0 0 54 -216 0 0 209 -61 0zm303 0l176 -460 67 0 187 460 -69 0 -53 -139 -194 0 -50 139 -64 0zm132 -189l157 0 -48 -127c-15,-39 -26,-71 -33,-96 -6,30 -15,59 -26,88l-50 135zm673 28l61 15c-12,50 -35,88 -68,114 -33,26 -74,40 -122,40 -49,0 -89,-11 -120,-31 -31,-20 -55,-49 -71,-87 -16,-38 -24,-79 -24,-123 0,-48 9,-90 27,-125 19,-36 45,-63 78,-82 34,-18 71,-27 111,-27 46,0 85,11 116,35 32,23 53,56 66,98l-60 15c-11,-34 -26,-58 -46,-73 -21,-16 -46,-23 -77,-23 -35,0 -64,8 -88,25 -24,17 -40,40 -50,68 -9,29 -14,58 -14,88 0,39 5,74 17,103 11,29 29,51 53,65 24,14 50,22 77,22 34,0 63,-10 87,-30 23,-20 39,-49 47,-87zm437 -299l61 0 0 266c0,46 -5,83 -15,110 -11,27 -30,49 -57,66 -27,17 -63,26 -107,26 -43,0 -78,-8 -105,-23 -28,-15 -47,-36 -59,-64 -11,-28 -17,-67 -17,-115l0 -266 61 0 0 266c0,40 3,69 11,88 7,19 20,33 38,44 18,10 40,15 66,15 44,0 76,-10 95,-30 19,-21 28,-60 28,-117l0 -266zm160 460l0 -460 61 0 0 406 226 0 0 54 -287 0zm429 0l0 -406 -152 0 0 -54 364 0 0 54 -151 0 0 406 -61 0zm177 0l176 -460 67 0 187 460 -69 0 -53 -139 -194 0 -50 139 -64 0zm132 -189l157 0 -48 -127c-15,-39 -26,-71 -33,-96 -6,30 -15,59 -26,88l-50 135zm346 189l0 -460 158 0c36,0 63,3 82,7 27,6 49,17 68,33 24,20 42,47 54,78 12,32 18,69 18,110 0,35 -4,65 -12,92 -8,27 -19,50 -31,67 -13,18 -27,32 -42,42 -15,10 -34,18 -55,23 -22,5 -46,8 -74,8l-166 0zm61 -54l98 0c30,0 54,-3 71,-9 18,-5 31,-13 42,-23 14,-15 25,-34 33,-59 8,-24 12,-54 12,-88 0,-48 -8,-85 -23,-111 -16,-26 -35,-43 -58,-52 -16,-7 -42,-10 -78,-10l-97 0 0 352zm-2852 771l0 -460 204 0c41,0 72,4 93,13 21,8 38,22 51,43 13,21 19,44 19,69 0,33 -10,60 -32,83 -21,22 -53,36 -97,42 16,8 28,16 36,23 18,17 35,37 51,61l79 126 -76 0 -60 -96c-18,-28 -33,-49 -44,-64 -12,-14 -22,-24 -31,-30 -9,-6 -18,-10 -28,-12 -7,-2 -18,-3 -34,-3l-70 0 0 205 -61 0zm61 -257l131 0c27,0 49,-3 65,-9 15,-5 27,-15 35,-27 8,-13 12,-27 12,-42 0,-21 -8,-39 -23,-53 -16,-14 -41,-21 -75,-21l-145 0 0 152zm402 257l0 -460 332 0 0 54 -271 0 0 141 254 0 0 54 -254 0 0 157 282 0 0 54 -343 0zm642 -181l0 -54 194 0 0 171c-29,23 -60,41 -92,53 -32,12 -64,18 -98,18 -45,0 -86,-9 -123,-29 -37,-19 -64,-47 -83,-83 -19,-37 -28,-78 -28,-123 0,-45 9,-86 28,-125 18,-39 45,-68 80,-86 35,-19 76,-29 122,-29 33,0 63,6 90,17 26,10 47,25 63,45 15,19 26,44 34,75l-54 15c-7,-24 -16,-42 -26,-55 -10,-14 -25,-24 -44,-32 -19,-9 -40,-13 -63,-13 -28,0 -52,5 -72,13 -20,9 -37,20 -49,34 -12,13 -22,29 -29,45 -12,29 -17,59 -17,93 0,41 7,75 21,103 14,27 34,48 61,61 27,14 56,20 86,20 26,0 52,-5 77,-15 25,-10 44,-21 57,-33l0 -86 -135 0zm294 181l0 -460 61 0 0 460 -61 0zm150 -224c0,-76 20,-136 61,-179 41,-43 94,-65 159,-65 42,0 80,11 114,31 34,20 60,48 78,85 18,36 27,77 27,123 0,46 -9,88 -28,124 -19,37 -46,65 -80,84 -34,19 -72,28 -112,28 -43,0 -81,-10 -116,-31 -34,-21 -59,-49 -77,-86 -18,-36 -26,-74 -26,-114zm63 1c0,55 14,99 44,131 30,31 67,47 112,47 46,0 83,-16 113,-48 30,-32 44,-77 44,-137 0,-37 -6,-69 -19,-97 -12,-28 -31,-50 -55,-65 -24,-15 -52,-23 -82,-23 -43,0 -80,15 -111,44 -31,30 -46,79 -46,148zm454 223l0 -460 62 0 241 361 0 -361 58 0 0 460 -62 0 -241 -361 0 361 -58 0zm413 0l176 -460 67 0 187 460 -69 0 -53 -140 -193 0 -50 140 -65 0zm132 -189l157 0 -48 -127c-14,-39 -25,-71 -33,-96 -6,30 -15,59 -25,88l-51 135zm344 189l0 -460 61 0 0 406 226 0 0 54 -287 0zm-2957 716l0 -459 91 0 108 325c10,30 18,53 22,68 5,-17 14,-41 25,-74l110 -319 82 0 0 459 -59 0 0 -384 -134 384 -54 0 -133 -391 0 391 -58 0zm485 0l176 -459 67 0 187 459 -69 0 -53 -139 -194 0 -50 139 -64 0zm132 -188l157 0 -48 -128c-15,-38 -26,-70 -33,-96 -7,30 -15,60 -26,89l-50 135zm347 188l0 -459 204 0c41,0 72,4 93,12 22,9 39,23 51,44 13,21 19,44 19,69 0,33 -10,60 -31,83 -21,22 -54,36 -98,42 16,8 28,15 37,23 18,16 34,37 50,61l79 125 -75 0 -61 -95c-18,-28 -32,-49 -44,-64 -11,-14 -22,-25 -31,-30 -9,-6 -18,-10 -27,-13 -7,-1 -19,-2 -34,-2l-71 0 0 204 -61 0zm61 -256l131 0c28,0 49,-3 65,-9 15,-6 27,-15 35,-28 8,-12 13,-26 13,-41 0,-22 -8,-39 -24,-53 -16,-15 -41,-21 -74,-21l-146 0 0 152zm580 256l0 -459 158 0c36,0 63,2 82,6 26,6 48,18 67,33 24,21 42,47 54,79 12,32 18,68 18,109 0,35 -4,66 -12,93 -8,27 -18,49 -31,67 -13,17 -27,31 -42,41 -15,10 -33,18 -55,23 -21,6 -46,8 -74,8l-165 0zm61 -54l98 0c30,0 54,-2 71,-8 17,-6 31,-14 41,-24 14,-14 26,-34 34,-58 8,-25 12,-54 12,-89 0,-48 -8,-85 -24,-111 -16,-26 -35,-43 -57,-52 -17,-6 -43,-9 -79,-9l-96 0 0 351zm403 54l0 -459 332 0 0 54 -271 0 0 141 254 0 0 54 -254 0 0 156 282 0 0 54 -343 0zm424 0l0 -459 61 0 0 405 226 0 0 54 -287 0zm514 0l0 -459 174 0c30,0 53,1 69,4 23,4 42,11 57,22 16,10 28,25 37,44 9,19 14,40 14,62 0,39 -12,72 -37,99 -25,27 -70,41 -135,41l-118 0 0 187 -61 0zm61 -241l119 0c39,0 67,-7 83,-22 17,-15 25,-35 25,-62 0,-19 -5,-35 -14,-49 -10,-14 -23,-23 -39,-27 -10,-3 -29,-4 -56,-4l-118 0 0 164zm364 241l0 -459 61 0 0 405 226 0 0 54 -287 0zm309 0l177 -459 66 0 187 459 -69 0 -53 -139 -193 0 -50 139 -65 0zm133 -188l156 0 -48 -128c-14,-38 -25,-70 -33,-96 -6,30 -14,60 -25,89l-50 135zm415 188l0 -405 -152 0 0 -54 364 0 0 54 -151 0 0 405 -61 0zm177 0l176 -459 67 0 187 459 -69 0 -53 -139 -194 0 -49 139 -65 0zm132 -188l157 0 -48 -128c-15,-38 -26,-70 -33,-96 -6,30 -15,60 -25,89l-51 135z"/>
   </g>
   <path class="fil1" d="M11531 13900c0,389 -276,714 -644,789l644 0 0 322 -644 0c367,75 644,400 644,789l-322 0c0,-210 -135,-389 -322,-455l0 455 -322 0 0 -455c-188,66 -323,245 -323,455l-322 0c0,-389 277,-714 644,-789l-644 0 0 -322 644 0c-367,-75 -644,-400 -644,-789l322 0c0,210 135,389 323,455l0 -455 322 0 0 455c187,-66 322,-245 322,-455l322 0z"/>
  </g>
 </g>
</svg>
